<svg width="32" height="32" viewBox="0 0 32 32" fill="none" xmlns="http://www.w3.org/2000/svg">
<path d="M23.5 16.0003L13.5 16.0003M23.5 11.0003L13.5 11.0003M23.5 21.0003L13.5 21.0003M10.1667 16.0003C10.1667 16.4606 9.79357 16.8337 9.33333 16.8337C8.8731 16.8337 8.5 16.4606 8.5 16.0003C8.5 15.5401 8.8731 15.167 9.33333 15.167C9.79357 15.167 10.1667 15.5401 10.1667 16.0003ZM10.1667 11.0003C10.1667 11.4606 9.79357 11.8337 9.33333 11.8337C8.8731 11.8337 8.5 11.4606 8.5 11.0003C8.5 10.5401 8.8731 10.167 9.33333 10.167C9.79357 10.167 10.1667 10.5401 10.1667 11.0003ZM10.1667 21.0003C10.1667 21.4606 9.79357 21.8337 9.33333 21.8337C8.8731 21.8337 8.5 21.4606 8.5 21.0003C8.5 20.5401 8.8731 20.167 9.33333 20.167C9.79357 20.167 10.1667 20.5401 10.1667 21.0003Z" stroke="#A4A4A4" stroke-width="1.67" stroke-linecap="round" stroke-linejoin="round"/>
</svg>
