<svg width="18" height="18" viewBox="0 0 18 18" fill="none" xmlns="http://www.w3.org/2000/svg">
<g clip-path="url(#clip0_15227_33438)">
<path d="M15.75 9C15.75 5.27208 12.7279 2.25 9 2.25C5.27208 2.25 2.25 5.27208 2.25 9C2.25 12.7279 5.27208 15.75 9 15.75C12.7279 15.75 15.75 12.7279 15.75 9ZM8.25 4.5C8.25 4.08579 8.58579 3.75 9 3.75C9.41421 3.75 9.75 4.08579 9.75 4.5V8.53638L12.3354 9.8291C12.7059 10.0143 12.8561 10.465 12.6709 10.8354C12.4857 11.2059 12.035 11.3561 11.6646 11.1709L8.66455 9.6709C8.41046 9.54385 8.25 9.28408 8.25 9V4.5ZM17.25 9C17.25 13.5563 13.5563 17.25 9 17.25C4.44365 17.25 0.75 13.5563 0.75 9C0.75 4.44365 4.44365 0.75 9 0.75C13.5563 0.75 17.25 4.44365 17.25 9Z" fill="#333333"/>
</g>
<defs>
<clipPath id="clip0_15227_33438">
<rect width="18" height="18" fill="white"/>
</clipPath>
</defs>
</svg>
