<svg width="20" height="20" viewBox="0 0 20 20" fill="none" xmlns="http://www.w3.org/2000/svg">
<path d="M15.0003 6.66699C15.0003 9.24215 15.6499 11.0053 16.3756 12.1715C16.9877 13.1552 17.2938 13.6471 17.2825 13.7843C17.2701 13.9362 17.2379 13.9942 17.1155 14.085C17.0049 14.167 16.5065 14.167 15.5096 14.167H4.49101C3.49413 14.167 2.99568 14.167 2.88511 14.085C2.76268 13.9942 2.7305 13.9362 2.71807 13.7843C2.70685 13.6471 3.01291 13.1552 3.62502 12.1715C4.35069 11.0053 5.0003 9.24215 5.0003 6.66699C5.0003 5.34091 5.52708 4.06914 6.46477 3.13146C7.40245 2.19378 8.67422 1.66699 10.0003 1.66699M7.79545 17.5003C8.38306 18.019 9.15493 18.3337 10.0003 18.3337C10.8457 18.3337 11.6175 18.019 12.2052 17.5003" stroke="#737373" stroke-width="2" stroke-linecap="round" stroke-linejoin="round"/>
<circle cx="14.167" cy="2.5" r="2.5" fill="#00BB86"/>
</svg>
