<svg width="24" height="24" viewBox="0 0 24 24" fill="none" xmlns="http://www.w3.org/2000/svg">
<path d="M17.9998 8C17.9998 11.0902 18.7793 13.206 19.6501 14.6054C20.3846 15.7859 20.7519 16.3761 20.7384 16.5408C20.7235 16.7231 20.6849 16.7926 20.538 16.9016C20.4053 17 19.8072 17 18.6109 17H5.38863C4.19237 17 3.59423 17 3.46155 16.9016C3.31463 16.7926 3.27601 16.7231 3.2611 16.5408C3.24763 16.3761 3.6149 15.7859 4.34944 14.6054C5.22024 13.206 5.99977 11.0902 5.99977 8C5.99977 6.4087 6.63192 4.88258 7.75713 3.75736C8.88235 2.63214 10.4085 2 11.9998 2M9.35395 21C10.0591 21.6224 10.9853 22 11.9998 22C13.0142 22 13.9405 21.6224 14.6456 21" stroke="#737373" stroke-width="2" stroke-linecap="round" stroke-linejoin="round"/>
<circle cx="17" cy="3" r="3" fill="#00BB86"/>
</svg>
