<svg width="20" height="20" viewBox="0 0 20 20" fill="none" xmlns="http://www.w3.org/2000/svg">
<path d="M11.6534 16.8747C11.9985 16.5702 12.5256 16.603 12.8302 16.9479C13.1347 17.293 13.102 17.8201 12.7569 18.1247C12.023 18.7725 11.0567 19.1663 10.0006 19.1663C8.94455 19.1663 7.97824 18.7724 7.24425 18.1247C6.8992 17.8201 6.86646 17.293 7.17101 16.9479C7.47557 16.6032 8.00199 16.5703 8.34696 16.8747C8.78817 17.2641 9.366 17.4997 10.0006 17.4997C10.6351 17.4996 11.2123 17.264 11.6534 16.8747ZM14.1673 6.66634C14.1673 5.56132 13.7279 4.50177 12.9466 3.72038C12.1652 2.93902 11.1056 2.49972 10.0006 2.49967C8.89553 2.49967 7.83523 2.93898 7.05382 3.72038C6.27262 4.50175 5.83393 5.56142 5.83393 6.66634C5.83393 9.38942 5.14433 11.3064 4.33247 12.6112C4.1554 12.8957 4.00815 13.1337 3.88732 13.3314C4.05924 13.3323 4.25922 13.333 4.49116 13.333H15.51C15.7416 13.333 15.9413 13.3323 16.1131 13.3314C15.9922 13.1337 15.845 12.8957 15.6679 12.6112C14.8561 11.3064 14.1673 9.38937 14.1673 6.66634ZM15.8339 6.66634C15.8339 9.09355 16.4436 10.7029 17.0831 11.7306C17.3855 12.2166 17.6242 12.6005 17.7846 12.8789C17.8641 13.0168 17.9369 13.1498 17.9905 13.2679C18.0172 13.3267 18.0469 13.3988 18.0703 13.4771C18.0897 13.5422 18.1272 13.6819 18.1134 13.8514C18.1041 13.9654 18.0803 14.1604 17.9685 14.3617C17.8568 14.5628 17.7039 14.6858 17.6121 14.7539C17.4006 14.9107 17.1571 14.9444 17.0807 14.9557C16.9579 14.9739 16.8184 14.9836 16.6778 14.9891C16.3946 15.0001 16.0005 14.9997 15.51 14.9997H4.49116C4.00059 14.9997 3.60671 15.0001 3.32336 14.9891C3.18273 14.9836 3.04336 14.9739 2.92052 14.9557C2.84455 14.9445 2.60091 14.9108 2.38911 14.7539C2.29724 14.6858 2.14364 14.5629 2.03185 14.3617C1.92006 14.1604 1.89713 13.9654 1.88781 13.8514C1.87397 13.6819 1.91071 13.5422 1.93013 13.4771C1.9535 13.3986 1.98397 13.3268 2.01069 13.2679C2.06429 13.1499 2.13633 13.0168 2.21577 12.8789C2.37618 12.6006 2.6149 12.2166 2.91727 11.7306C3.51675 10.7672 4.09053 9.29263 4.15994 7.11231L4.16727 6.66634C4.16727 5.11925 4.78148 3.63514 5.87544 2.54118C6.96939 1.44727 8.45355 0.833008 10.0006 0.833008C11.5475 0.833057 13.0311 1.44746 14.125 2.54118C15.2189 3.63514 15.8339 5.11925 15.8339 6.66634Z" fill="#4A4A4A"/>
</svg>
