<svg width="24" height="24" viewBox="0 0 24 24" fill="none" xmlns="http://www.w3.org/2000/svg">
<path d="M13.9841 20.25C14.3981 19.8846 15.0307 19.9239 15.3962 20.3379C15.7617 20.7519 15.7224 21.3845 15.3083 21.75C14.4276 22.5274 13.268 22.9999 12.0007 23C10.7335 23 9.57389 22.5273 8.6931 21.75C8.27904 21.3845 8.23975 20.752 8.60521 20.3379C8.97068 19.9242 9.60239 19.8848 10.0163 20.25C10.5458 20.7173 11.2392 21 12.0007 21C12.7621 20.9999 13.4547 20.7172 13.9841 20.25ZM17.0007 8C17.0007 6.67397 16.4735 5.40251 15.5359 4.46484C14.5982 3.52722 13.3267 3.00006 12.0007 3C10.6746 3 9.40227 3.52716 8.46459 4.46484C7.52714 5.40249 7.00072 6.67409 7.00072 8C7.00072 11.2677 6.1732 13.5681 5.19896 15.1338C4.98649 15.4753 4.80978 15.7608 4.66478 15.998C4.87109 15.9992 5.11106 16 5.38939 16H18.612C18.89 16 19.1296 15.9992 19.3357 15.998C19.1907 15.7609 19.014 15.4752 18.8015 15.1338C17.8273 13.5681 17.0007 11.2676 17.0007 8ZM19.0007 8C19.0007 10.9127 19.7324 12.8439 20.4997 14.0771C20.8626 14.6604 21.149 15.121 21.3415 15.4551C21.4369 15.6206 21.5243 15.7802 21.5886 15.9219C21.6206 15.9924 21.6563 16.0789 21.6843 16.1729C21.7076 16.2511 21.7527 16.4186 21.7361 16.6221C21.7249 16.7589 21.6964 16.9929 21.5622 17.2344C21.4281 17.4757 21.2447 17.6233 21.1345 17.7051C20.8807 17.8933 20.5885 17.9337 20.4968 17.9473C20.3495 17.9691 20.182 17.9807 20.0134 17.9873C19.6735 18.0006 19.2006 18 18.612 18H5.38939C4.80071 18 4.32805 18.0006 3.98803 17.9873C3.81927 17.9807 3.65204 17.9691 3.50463 17.9473C3.41345 17.9338 3.12109 17.8934 2.86693 17.7051C2.75669 17.6233 2.57237 17.4759 2.43822 17.2344C2.30408 16.9929 2.27656 16.7589 2.26537 16.6221C2.24876 16.4186 2.29285 16.2511 2.31615 16.1729C2.3442 16.0788 2.38076 15.9925 2.41283 15.9219C2.47715 15.7802 2.56359 15.6205 2.65892 15.4551C2.85142 15.1211 3.13788 14.6603 3.50072 14.0771C4.2201 12.9211 4.90864 11.1516 4.99193 8.53516L5.00072 8C5.00072 6.14348 5.73777 4.36256 7.05053 3.0498C8.36327 1.73712 10.1443 1 12.0007 1C13.857 1.00006 15.6373 1.73734 16.9499 3.0498C18.2627 4.36256 19.0007 6.14349 19.0007 8Z" fill="#4A4A4A"/>
</svg>
