<svg width="18" height="18" viewBox="0 0 18 18" fill="none" xmlns="http://www.w3.org/2000/svg">
<path d="M1.85242 2.21967C2.14531 1.92678 2.6208 1.92678 2.9137 2.21967L5.64343 4.94941C5.68475 4.98235 5.72252 5.02055 5.75696 5.06293L13.558 12.864C13.6051 12.9004 13.6478 12.9436 13.6862 12.9921L16.4137 15.7197C16.7063 16.0125 16.7063 16.4874 16.4137 16.7802C16.1208 17.0731 15.6453 17.0731 15.3524 16.7802L12.986 14.4138C11.9024 15.0477 10.6112 15.4999 9.13269 15.4999C6.98666 15.4999 5.23692 14.5516 3.94055 13.4697C2.64586 12.3891 1.75791 11.1392 1.31335 10.4352C1.22334 10.2927 1.09695 10.1048 1.03503 9.83466C0.988356 9.63072 0.988287 9.36837 1.03503 9.16449C1.09705 8.89421 1.22385 8.70602 1.31409 8.56318C1.76587 7.84801 2.6848 6.55772 4.03064 5.45844L1.85242 3.28022C1.55973 2.98736 1.55973 2.51252 1.85242 2.21967ZM5.09631 6.52411C3.86701 7.49467 3.00827 8.69068 2.58264 9.36445C2.55604 9.40655 2.53744 9.4362 2.52185 9.46186C2.51139 9.47907 2.50445 9.49097 2.49988 9.49921V9.49994C2.50437 9.50806 2.51068 9.5201 2.52112 9.5373C2.53661 9.56282 2.5554 9.59273 2.58191 9.63471C2.98143 10.2673 3.77204 11.3749 4.90149 12.3176C6.02937 13.2589 7.45033 13.9999 9.13269 13.9999C10.1473 13.9999 11.0658 13.7308 11.8829 13.3107L10.6561 12.0839C10.2096 12.3476 9.6886 12.4999 9.13269 12.4999C7.47598 12.4998 6.13269 11.1567 6.13269 9.49994C6.13269 8.94399 6.28503 8.42304 6.54871 7.97651L5.09631 6.52411ZM9.13269 3.49994C11.2789 3.49994 13.0291 4.44821 14.3256 5.53022C15.6202 6.61073 16.5074 7.8607 16.952 8.56464C17.0308 8.6893 17.1377 8.84835 17.2047 9.06708L17.2311 9.16523L17.2574 9.32709C17.275 9.49649 17.2662 9.68243 17.2311 9.83539C17.169 10.1058 17.0417 10.2944 16.9513 10.4374C16.7125 10.8153 16.3502 11.3437 15.8702 11.9169C15.6043 12.2345 15.1309 12.2766 14.8134 12.0107C14.4958 11.7448 14.4544 11.2714 14.7203 10.9538C15.1487 10.4422 15.4717 9.97011 15.6827 9.63617C15.7094 9.59394 15.7286 9.5638 15.7443 9.53803C15.755 9.52039 15.7617 9.50822 15.7662 9.49994V9.49921C15.7617 9.49113 15.7552 9.4794 15.745 9.46259C15.7295 9.43707 15.7107 9.40716 15.6842 9.36518C15.2847 8.73263 14.4941 7.62504 13.3646 6.68232C12.2367 5.74091 10.8152 4.99994 9.13269 4.99994C8.8465 4.99996 8.56898 5.0217 8.29993 5.06147C7.89017 5.12205 7.5087 4.83841 7.44812 4.42865C7.38766 4.01899 7.67053 3.63818 8.0802 3.57758C8.42048 3.52727 8.77148 3.49996 9.13269 3.49994ZM2.50061 9.51825V9.51679L2.49988 9.51532C2.49996 9.51657 2.50054 9.51753 2.50061 9.51825ZM7.63269 9.49994C7.63269 10.3283 8.30441 10.9998 9.13269 10.9999C9.26663 10.9999 9.39599 10.98 9.51941 10.9472L7.68469 9.11249C7.65176 9.23612 7.63269 9.36575 7.63269 9.49994Z" fill="#333333"/>
</svg>
