<svg width="24" height="24" viewBox="0 0 24 24" fill="none" xmlns="http://www.w3.org/2000/svg">
<path d="M2.31722 2.82024C2.70774 2.42971 3.34174 2.42971 3.73226 2.82024L7.37191 6.45989C7.427 6.50381 7.47736 6.55475 7.52327 6.61125L17.9246 17.0126C17.9875 17.0612 18.0444 17.1188 18.0955 17.1835L21.7323 20.8202C22.1224 21.2107 22.1224 21.8438 21.7323 22.2343C21.3417 22.6248 20.7077 22.6248 20.3172 22.2343L17.1619 19.079C15.7172 19.9242 13.9956 20.5273 12.0243 20.5273C9.16287 20.5271 6.8299 19.2628 5.1014 17.8202C3.37515 16.3795 2.19122 14.7129 1.59847 13.7743C1.47845 13.5843 1.30993 13.3338 1.22738 12.9736C1.16514 12.7016 1.16505 12.3518 1.22738 12.08C1.31006 11.7196 1.47913 11.4687 1.59945 11.2782C2.20182 10.3247 3.42706 8.6043 5.22152 7.1386L2.31722 4.2343C1.92697 3.84383 1.92697 3.21071 2.31722 2.82024ZM6.64242 8.55949C5.00334 9.85356 3.85836 11.4482 3.29085 12.3466C3.25539 12.4028 3.23059 12.4423 3.2098 12.4765C3.19585 12.4994 3.1866 12.5153 3.1805 12.5263V12.5273C3.18649 12.5381 3.1949 12.5541 3.20882 12.5771C3.22948 12.6111 3.25453 12.651 3.28988 12.707C3.82257 13.5504 4.87672 15.0272 6.38265 16.2841C7.8865 17.5392 9.7811 18.5271 12.0243 18.5273C13.3771 18.5273 14.6017 18.1684 15.6912 17.6083L14.0555 15.9726C13.4602 16.3241 12.7655 16.5273 12.0243 16.5273C9.8153 16.527 8.02425 14.7363 8.02425 12.5273C8.02425 11.786 8.22737 11.0914 8.57894 10.496L6.64242 8.55949ZM12.0243 4.52727C14.8859 4.52727 17.2195 5.79163 18.9481 7.2343C20.6742 8.67498 21.8573 10.3416 22.45 11.2802C22.555 11.4464 22.6976 11.6585 22.7869 11.9501L22.8221 12.081L22.8573 12.2968C22.8806 12.5227 22.8689 12.7706 22.8221 12.9745C22.7394 13.3351 22.5696 13.5865 22.4491 13.7773C22.1307 14.2811 21.6476 14.9856 21.0077 15.7499C20.6531 16.1733 20.0219 16.2294 19.5985 15.8749C19.175 15.5204 19.1199 14.8892 19.4744 14.4657C20.0456 13.7836 20.4763 13.1542 20.7577 12.7089C20.7932 12.6526 20.8188 12.6124 20.8397 12.578C20.854 12.5545 20.8629 12.5383 20.869 12.5273V12.5263C20.863 12.5155 20.8543 12.4999 20.8407 12.4775C20.82 12.4434 20.795 12.4036 20.7596 12.3476C20.2269 11.5042 19.1727 10.0274 17.6668 8.77043C16.1629 7.51523 14.2676 6.52727 12.0243 6.52727C11.6427 6.52729 11.2726 6.55628 10.9139 6.6093C10.3676 6.69008 9.85894 6.31189 9.77816 5.76555C9.69754 5.21933 10.0747 4.71158 10.6209 4.63078C11.0746 4.5637 11.5426 4.52729 12.0243 4.52727ZM3.18148 12.5517V12.5497L3.1805 12.5478C3.18061 12.5494 3.18139 12.5507 3.18148 12.5517ZM10.0243 12.5273C10.0243 13.6317 10.9199 14.527 12.0243 14.5273C12.2028 14.5273 12.3753 14.5007 12.5399 14.457L10.0936 12.0107C10.0497 12.1755 10.0243 12.3483 10.0243 12.5273Z" fill="#333333"/>
</svg>
