<svg width="28" height="28" viewBox="0 0 28 28" fill="none" xmlns="http://www.w3.org/2000/svg">
<path d="M8.75 19.25H9.81875L17.15 11.9188L16.0813 10.85L8.75 18.1813V19.25ZM8 20.75C7.7875 20.75 7.60938 20.6781 7.46563 20.5344C7.32188 20.3906 7.25 20.2125 7.25 20V18.1813C7.25 17.9813 7.2875 17.7906 7.3625 17.6094C7.4375 17.4281 7.54375 17.2688 7.68125 17.1313L17.15 7.68125C17.3 7.54375 17.4656 7.4375 17.6469 7.3625C17.8281 7.2875 18.0188 7.25 18.2188 7.25C18.4188 7.25 18.6125 7.2875 18.8 7.3625C18.9875 7.4375 19.15 7.55 19.2875 7.7L20.3188 8.75C20.4688 8.8875 20.5781 9.05 20.6469 9.2375C20.7156 9.425 20.75 9.6125 20.75 9.8C20.75 10 20.7156 10.1906 20.6469 10.3719C20.5781 10.5531 20.4688 10.7188 20.3188 10.8688L10.8688 20.3188C10.7313 20.4563 10.5719 20.5625 10.3906 20.6375C10.2094 20.7125 10.0188 20.75 9.81875 20.75H8ZM16.6063 11.3938L16.0813 10.85L17.15 11.9188L16.6063 11.3938Z" fill="#737373"/>
</svg>
