<svg width="24" height="24" viewBox="0 0 24 24" fill="none" xmlns="http://www.w3.org/2000/svg">
<path d="M11.9999 3.5C14.8615 3.5 17.1951 4.76435 18.9237 6.20703C20.6499 7.64772 21.8329 9.31435 22.4257 10.2529C22.5306 10.4191 22.6732 10.6312 22.7626 10.9229L22.7977 11.0527L22.8329 11.2695C22.8562 11.4953 22.8445 11.7434 22.7977 11.9473C22.7151 12.3074 22.5456 12.5571 22.4257 12.7471C21.8329 13.6857 20.6499 15.3523 18.9237 16.793C17.1951 18.2356 14.8615 19.5 11.9999 19.5C9.1385 19.4999 6.80552 18.2355 5.07702 16.793C3.35077 15.3522 2.16684 13.6856 1.57409 12.7471C1.45414 12.5571 1.28559 12.3072 1.203 11.9473C1.14067 11.6753 1.14067 11.3247 1.203 11.0527C1.28559 10.6928 1.45414 10.4429 1.57409 10.2529C2.16684 9.31437 3.35077 7.64778 5.07702 6.20703C6.80552 4.76446 9.1385 3.50012 11.9999 3.5ZM11.9999 5.5C9.75672 5.50012 7.86212 6.48803 6.35827 7.74316C4.85235 9.00011 3.7982 10.4769 3.2655 11.3203C3.23016 11.3763 3.20511 11.4162 3.18445 11.4502C3.17084 11.4726 3.16212 11.4882 3.15613 11.499V11.5C3.16212 11.5108 3.17053 11.5269 3.18445 11.5498C3.20511 11.5838 3.23016 11.6237 3.2655 11.6797C3.7982 12.5231 4.85235 13.9999 6.35827 15.2568C7.86212 16.512 9.75672 17.4999 11.9999 17.5C14.2432 17.5 16.1385 16.512 17.6425 15.2568C19.1484 13.9999 20.2026 12.5231 20.7352 11.6797C20.7706 11.6238 20.7947 11.5838 20.8153 11.5498C20.8292 11.527 20.8376 11.5108 20.8436 11.5C20.8376 11.4892 20.8292 11.473 20.8153 11.4502C20.7947 11.4162 20.7706 11.3762 20.7352 11.3203C20.2026 10.4769 19.1484 9.00013 17.6425 7.74316C16.1385 6.48796 14.2432 5.5 11.9999 5.5ZM13.9999 11.5C13.9999 10.3954 13.1044 9.5 11.9999 9.5C10.8955 9.50022 9.99988 10.3956 9.99988 11.5C9.99988 12.6044 10.8955 13.4998 11.9999 13.5C13.1044 13.5 13.9999 12.6046 13.9999 11.5ZM3.1571 11.5244V11.5225L3.15613 11.5205C3.15624 11.5222 3.15701 11.5234 3.1571 11.5244ZM15.9999 11.5C15.9999 13.7091 14.209 15.5 11.9999 15.5C9.79092 15.4998 7.99988 13.709 7.99988 11.5C7.99988 9.291 9.79092 7.50022 11.9999 7.5C14.209 7.5 15.9999 9.29086 15.9999 11.5Z" fill="#333333"/>
</svg>
